<svg width="339" height="230" viewBox="0 0 339 230" fill="none" xmlns="http://www.w3.org/2000/svg">
<rect width="339" height="230" rx="6" fill="#111827"/>
<path d="M56.5449 117.628C56.4297 119.523 55.9111 121.206 54.9893 122.679C54.0674 124.151 52.7806 125.303 51.1289 126.136C49.49 126.968 47.5182 127.384 45.2135 127.384C42.8064 127.384 40.7322 126.84 38.9909 125.752C37.2496 124.65 35.9116 123.088 34.9769 121.065C34.0422 119.042 33.5749 116.648 33.5749 113.882V112.173C33.5749 109.395 34.055 106.994 35.0153 104.971C35.9884 102.948 37.3456 101.386 39.0869 100.285C40.8282 99.1837 42.8832 98.6331 45.252 98.6331C47.6079 98.6331 49.5924 99.0685 51.2057 99.9391C52.8318 100.797 54.0866 101.975 54.9701 103.473C55.8663 104.971 56.4041 106.68 56.5833 108.601H50.5527C50.4375 106.962 49.9894 105.72 49.2083 104.875C48.4401 104.017 47.1213 103.588 45.252 103.588C44.01 103.588 42.9793 103.889 42.1598 104.491C41.3404 105.093 40.7258 106.027 40.3161 107.295C39.9064 108.55 39.7015 110.163 39.7015 112.135V113.882C39.7015 115.816 39.8808 117.416 40.2393 118.684C40.6106 119.951 41.1995 120.899 42.0062 121.526C42.8128 122.141 43.8819 122.448 45.2135 122.448C46.3787 122.448 47.339 122.275 48.0944 121.93C48.8498 121.571 49.426 121.033 49.8229 120.316C50.2198 119.599 50.4567 118.703 50.5335 117.628H56.5449ZM83.3369 113.594C83.3369 116.462 82.8312 118.927 81.8197 120.989C80.8082 123.037 79.4061 124.618 77.6136 125.732C75.8211 126.834 73.7469 127.384 71.3909 127.384C69.035 127.384 66.948 126.834 65.1299 125.732C63.3245 124.618 61.9097 123.037 60.8854 120.989C59.8611 118.927 59.349 116.462 59.349 113.594V112.461C59.349 109.593 59.8547 107.135 60.8662 105.086C61.8905 103.025 63.3053 101.437 65.1107 100.323C66.916 99.2093 68.9966 98.6523 71.3525 98.6523C73.7084 98.6523 75.7827 99.2093 77.5752 100.323C79.3805 101.437 80.789 103.025 81.8005 105.086C82.8248 107.135 83.3369 109.593 83.3369 112.461V113.594ZM77.2487 112.423C77.2487 110.502 77.0182 108.889 76.5573 107.583C76.0964 106.277 75.4242 105.291 74.5407 104.625C73.6572 103.96 72.5945 103.627 71.3525 103.627C70.085 103.627 69.0158 103.96 68.1452 104.625C67.2745 105.291 66.6087 106.277 66.1478 107.583C65.6997 108.889 65.4756 110.502 65.4756 112.423V113.594C65.4756 115.502 65.7061 117.115 66.167 118.434C66.6279 119.74 67.2937 120.733 68.1644 121.411C69.0479 122.09 70.1234 122.429 71.3909 122.429C72.6329 122.429 73.6892 122.09 74.5599 121.411C75.4434 120.733 76.1092 119.74 76.5573 118.434C77.0182 117.115 77.2487 115.502 77.2487 113.594V112.423ZM95.2637 99.0365L102.197 118.991L109.111 99.0365H114.201L104.233 127H100.123L90.1742 99.0365H95.2637ZM92.4788 99.0365L93.4199 119.759V127H87.3701V99.0365H92.4788ZM117.005 99.0365V127H110.955V119.759L111.877 99.0365H117.005ZM128.278 127H122.248V99.0365H128.278V127ZM156.376 127H150.346L139.494 109.004V127H133.464V99.0365H139.494L150.365 117.051V99.0365H156.376V127ZM183.572 123.466C183.123 123.991 182.438 124.561 181.517 125.175C180.608 125.777 179.43 126.296 177.983 126.731C176.549 127.166 174.807 127.384 172.759 127.384C170.339 127.384 168.213 126.859 166.382 125.809C164.552 124.747 163.124 123.204 162.1 121.181C161.088 119.158 160.582 116.706 160.582 113.825V112.231C160.582 109.337 161.069 106.879 162.042 104.856C163.028 102.833 164.404 101.29 166.171 100.227C167.938 99.1645 170 98.6331 172.355 98.6331C174.827 98.6331 176.85 99.0365 178.424 99.8431C179.999 100.637 181.197 101.738 182.016 103.146C182.848 104.555 183.36 106.175 183.552 108.006H177.695C177.567 107.071 177.304 106.271 176.907 105.605C176.523 104.926 175.979 104.408 175.275 104.049C174.571 103.678 173.655 103.492 172.528 103.492C171.286 103.492 170.23 103.819 169.359 104.472C168.489 105.125 167.823 106.098 167.362 107.391C166.914 108.671 166.69 110.272 166.69 112.192V113.825C166.69 115.733 166.933 117.333 167.42 118.626C167.906 119.919 168.623 120.893 169.571 121.546C170.531 122.199 171.715 122.525 173.124 122.525C173.994 122.525 174.718 122.455 175.294 122.314C175.87 122.173 176.337 122.007 176.696 121.814C177.054 121.61 177.33 121.418 177.522 121.238V116.59H172.451V112.192H183.572V123.466ZM212.342 119.625C212.342 118.998 212.207 118.453 211.938 117.993C211.67 117.532 211.151 117.096 210.383 116.687C209.627 116.264 208.507 115.816 207.022 115.342C205.767 114.932 204.57 114.471 203.43 113.959C202.304 113.434 201.305 112.826 200.434 112.135C199.564 111.443 198.879 110.637 198.379 109.715C197.88 108.793 197.63 107.717 197.63 106.488C197.63 104.913 198.078 103.543 198.975 102.378C199.871 101.2 201.1 100.285 202.662 99.6318C204.237 98.9788 206.036 98.6523 208.059 98.6523C210.133 98.6523 211.945 99.0173 213.494 99.7471C215.043 100.477 216.241 101.495 217.086 102.801C217.943 104.094 218.372 105.592 218.372 107.295H212.361C212.361 106.539 212.201 105.874 211.881 105.298C211.561 104.709 211.074 104.254 210.421 103.934C209.781 103.601 208.962 103.435 207.963 103.435C207.003 103.435 206.202 103.575 205.562 103.857C204.922 104.139 204.442 104.51 204.122 104.971C203.814 105.432 203.661 105.951 203.661 106.527C203.661 107.128 203.872 107.653 204.295 108.102C204.717 108.55 205.332 108.966 206.138 109.35C206.945 109.721 207.924 110.086 209.077 110.445C211.113 111.059 212.822 111.783 214.205 112.615C215.588 113.447 216.625 114.433 217.316 115.573C218.02 116.699 218.372 118.037 218.372 119.587C218.372 121.225 217.95 122.627 217.105 123.793C216.273 124.958 215.095 125.848 213.571 126.462C212.047 127.077 210.255 127.384 208.193 127.384C206.785 127.384 205.402 127.205 204.045 126.846C202.701 126.475 201.478 125.912 200.377 125.156C199.288 124.388 198.418 123.421 197.765 122.256C197.112 121.091 196.785 119.708 196.785 118.108H202.835C202.835 118.94 202.957 119.644 203.2 120.22C203.456 120.784 203.814 121.245 204.275 121.603C204.749 121.962 205.312 122.224 205.965 122.391C206.631 122.544 207.374 122.621 208.193 122.621C209.154 122.621 209.935 122.493 210.536 122.237C211.151 121.968 211.606 121.61 211.9 121.161C212.195 120.701 212.342 120.188 212.342 119.625ZM245.318 113.594C245.318 116.462 244.812 118.927 243.801 120.989C242.789 123.037 241.387 124.618 239.595 125.732C237.802 126.834 235.728 127.384 233.372 127.384C231.016 127.384 228.929 126.834 227.111 125.732C225.306 124.618 223.891 123.037 222.867 120.989C221.842 118.927 221.33 116.462 221.33 113.594V112.461C221.33 109.593 221.836 107.135 222.847 105.086C223.872 103.025 225.286 101.437 227.092 100.323C228.897 99.2093 230.978 98.6523 233.334 98.6523C235.69 98.6523 237.764 99.2093 239.556 100.323C241.362 101.437 242.77 103.025 243.782 105.086C244.806 107.135 245.318 109.593 245.318 112.461V113.594ZM239.23 112.423C239.23 110.502 238.999 108.889 238.538 107.583C238.077 106.277 237.405 105.291 236.522 104.625C235.638 103.96 234.576 103.627 233.334 103.627C232.066 103.627 230.997 103.96 230.126 104.625C229.256 105.291 228.59 106.277 228.129 107.583C227.681 108.889 227.457 110.502 227.457 112.423V113.594C227.457 115.502 227.687 117.115 228.148 118.434C228.609 119.74 229.275 120.733 230.146 121.411C231.029 122.09 232.104 122.429 233.372 122.429C234.614 122.429 235.67 122.09 236.541 121.411C237.424 120.733 238.09 119.74 238.538 118.434C238.999 117.115 239.23 115.502 239.23 113.594V112.423ZM272.513 113.594C272.513 116.462 272.008 118.927 270.996 120.989C269.985 123.037 268.583 124.618 266.79 125.732C264.997 126.834 262.923 127.384 260.567 127.384C258.211 127.384 256.124 126.834 254.306 125.732C252.501 124.618 251.086 123.037 250.062 120.989C249.038 118.927 248.525 116.462 248.525 113.594V112.461C248.525 109.593 249.031 107.135 250.043 105.086C251.067 103.025 252.482 101.437 254.287 100.323C256.092 99.2093 258.173 98.6523 260.529 98.6523C262.885 98.6523 264.959 99.2093 266.752 100.323C268.557 101.437 269.965 103.025 270.977 105.086C272.001 107.135 272.513 109.593 272.513 112.461V113.594ZM266.425 112.423C266.425 110.502 266.195 108.889 265.734 107.583C265.273 106.277 264.601 105.291 263.717 104.625C262.834 103.96 261.771 103.627 260.529 103.627C259.261 103.627 258.192 103.96 257.322 104.625C256.451 105.291 255.785 106.277 255.324 107.583C254.876 108.889 254.652 110.502 254.652 112.423V113.594C254.652 115.502 254.882 117.115 255.343 118.434C255.804 119.74 256.47 120.733 257.341 121.411C258.224 122.09 259.3 122.429 260.567 122.429C261.809 122.429 262.866 122.09 263.736 121.411C264.62 120.733 265.286 119.74 265.734 118.434C266.195 117.115 266.425 115.502 266.425 113.594V112.423ZM299.459 127H293.428L282.577 109.004V127H276.547V99.0365H282.577L293.448 117.051V99.0365H299.459V127Z" fill="white"/>
<line x1="312.5" y1="88" x2="312.5" y2="138" stroke="white"/>
<line x1="22" y1="87.5" x2="313" y2="87.5" stroke="white"/>
<line x1="22.5" y1="88" x2="22.5" y2="138" stroke="white"/>
<line x1="23" y1="137.5" x2="312" y2="137.5" stroke="white"/>
</svg>
