<svg width="48" height="29" viewBox="0 0 48 29" fill="none" xmlns="http://www.w3.org/2000/svg">
<path d="M47.1266 27.306C45.417 27.7524 44.3595 27.3256 43.4106 25.8626L36.6632 16.2765L35.688 14.9493L27.8081 25.8943C26.9078 27.211 25.9634 27.7841 24.2831 27.318L34.3734 13.4094L24.9793 0.846088C26.5949 0.523333 27.7112 0.687726 28.7026 2.1733L35.7012 11.8786L42.7512 2.22609C43.6545 0.909433 44.6253 0.40871 46.2468 0.894351L42.6043 5.85332L37.6693 12.4517C37.0818 13.2058 37.1626 13.7216 37.7031 14.4501L47.1266 27.306ZM0.138337 13.1771L0.963774 9.00847C3.21096 0.758613 12.42 -2.66953 18.7709 2.42819C22.4824 5.4265 23.4048 9.66756 23.2212 14.4184H2.30034C1.98602 22.9699 7.97999 28.131 15.6219 25.4976C18.3024 24.5731 19.8813 22.4179 20.6715 19.7212C21.0724 18.3699 21.7363 18.1587 22.973 18.5448C22.3414 21.9172 20.9167 24.7345 17.9058 26.4976C13.407 29.1369 6.98565 28.2833 3.60752 24.6153C1.59534 22.4873 0.764024 19.7906 0.390962 16.9069C0.332212 16.4303 0.214712 15.9764 0.126587 15.5194C0.13442 14.7391 0.138337 13.9589 0.138337 13.1787V13.1771ZM2.33852 12.604H21.2443C21.1209 6.4204 17.3712 2.02852 12.2467 1.99081C6.6214 1.94557 2.58234 6.23338 2.33852 12.604Z" fill="#F9FAFB"/>
</svg>
