<svg width="65" height="64" viewBox="0 0 65 64" fill="none" xmlns="http://www.w3.org/2000/svg">
<path d="M0.778687 64V0H64.7787V64H0.778687Z" fill="#FFD600"/>
<path d="M42.6238 47.9058C43.854 49.904 45.1909 51.8187 48.0229 51.8187C50.4016 51.8187 51.6496 50.6365 51.6496 49.0009C51.6496 47.0436 50.3589 46.3485 47.742 45.2089L46.3074 44.5973C42.1669 42.8409 39.4131 40.64 39.4131 35.9911C39.4131 31.7067 42.6931 28.4462 47.8185 28.4462C51.4683 28.4462 54.0905 29.7102 55.982 33.0205L51.5127 35.8773C50.5296 34.1209 49.4665 33.4293 47.8185 33.4293C46.1367 33.4293 45.0718 34.4907 45.0718 35.8773C45.0718 37.5911 46.1385 38.2845 48.6007 39.3458L50.0354 39.9573C54.9154 42.0356 57.6674 44.1582 57.6674 48.9298C57.6674 54.0711 53.6069 56.8889 48.1563 56.8889C42.8247 56.8889 39.7971 54.2133 38.1118 50.9013L42.6238 47.9058ZM22.0265 48.0516C22.926 49.6622 24.2931 50.9013 26.2594 50.9013C28.1403 50.9013 29.2229 50.1582 29.2229 47.2693V28.4445H35.1483V48.1796C35.1483 54.1653 31.6763 56.8889 26.606 56.8889C22.0247 56.8889 18.718 53.7849 17.3705 50.9013L22.0265 48.0516Z" fill="#000001"/>
</svg>
