<svg width="47" height="48" viewBox="0 0 47 48" fill="none" xmlns="http://www.w3.org/2000/svg">
<path fill-rule="evenodd" clip-rule="evenodd" d="M27.6741 0.944763C27.3343 0.944763 27.0187 1.01788 26.7274 1.11536C27.3464 1.52967 27.6863 2.07803 27.8562 2.69949C27.8684 2.78479 27.8926 2.84572 27.9048 2.93102C27.9169 3.00413 27.929 3.07725 27.929 3.15036C27.9776 4.22269 27.6499 4.35673 27.4192 4.99039C27.0672 5.80682 27.1643 6.68419 27.5892 7.39095C27.6256 7.47625 27.6741 7.57373 27.7348 7.65903C27.2736 4.57607 29.8347 4.11302 30.308 3.15036C30.3445 2.30955 29.6526 1.74901 29.1064 1.35907C28.5845 1.04225 28.1111 0.944763 27.6741 0.944763ZM31.534 1.63934C31.4854 1.91961 31.5218 1.8465 31.5097 1.99273C31.4976 2.09021 31.4976 2.21207 31.4855 2.30955C31.4612 2.40704 31.4369 2.50452 31.4005 2.60201C31.3762 2.69949 31.3398 2.79698 31.3034 2.89446C31.2548 2.99195 31.2184 3.07724 31.1699 3.17473C31.1335 3.22349 31.1092 3.27221 31.0728 3.32096C31.0485 3.35752 31.0242 3.39407 30.9999 3.43063C30.9393 3.51593 30.8786 3.60123 30.8179 3.67434C30.745 3.74746 30.6844 3.83275 30.5994 3.89368V3.90588C30.5266 3.96681 30.4537 4.03993 30.3688 4.10085C30.1139 4.29582 29.8226 4.44205 29.5555 4.62483C29.4706 4.68576 29.3856 4.73451 29.3128 4.80762C29.2278 4.86855 29.155 4.92947 29.0822 5.00259C28.9972 5.0757 28.9365 5.14882 28.8637 5.23412C28.803 5.30723 28.7302 5.39253 28.6816 5.47783C28.6209 5.56313 28.5602 5.64843 28.5117 5.73372C28.4631 5.83121 28.4267 5.91651 28.3782 6.01399C28.3418 6.11147 28.3053 6.19678 28.2811 6.29426C28.2447 6.40393 28.2204 6.50142 28.1961 6.59891C28.184 6.64767 28.1839 6.70857 28.1718 6.75732C28.1597 6.80608 28.1597 6.8548 28.1476 6.90355C28.1476 7.00103 28.1354 7.1107 28.1354 7.20818C28.1354 7.2813 28.1354 7.35441 28.1476 7.42753C28.1476 7.52501 28.1597 7.62249 28.184 7.73216C28.1962 7.82965 28.2204 7.92713 28.2447 8.02462C28.2811 8.1221 28.3054 8.21959 28.3418 8.31707C28.3661 8.37801 28.4025 8.43893 28.4268 8.48767L25.6351 7.40315C25.1617 7.26911 24.7005 7.14726 24.2271 7.03759C23.9722 6.97666 23.7173 6.91573 23.4624 6.8548C22.7341 6.70857 21.9937 6.59891 21.2533 6.52579C21.2291 6.52579 21.2169 6.51359 21.1926 6.51359C20.4643 6.44048 19.7482 6.40392 19.02 6.40392C18.4859 6.40392 17.9518 6.42827 17.4299 6.46485C16.6895 6.51361 15.9491 6.61108 15.2087 6.73293C15.0266 6.75728 14.8445 6.79386 14.6625 6.83042C14.2862 6.90353 13.9221 6.98883 13.5701 7.07413C13.388 7.12289 13.2059 7.17161 13.0239 7.22035C12.8418 7.29347 12.6719 7.37877 12.5019 7.45188C12.3684 7.51281 12.2349 7.57374 12.1014 7.63467C12.0771 7.64687 12.0528 7.64687 12.0407 7.65902C11.9193 7.71995 11.8101 7.76869 11.7008 7.82962C11.6644 7.84182 11.6401 7.85397 11.6159 7.86618C11.4824 7.9271 11.3488 8.00021 11.2396 8.06114C11.1546 8.0977 11.0697 8.14644 10.9968 8.183C10.9604 8.20735 10.9119 8.23176 10.8876 8.24393C10.7784 8.30486 10.6691 8.36578 10.572 8.42671C10.4628 8.48764 10.3657 8.54857 10.2807 8.60949C10.1958 8.67043 10.1108 8.71916 10.038 8.78009C10.0258 8.79229 10.0137 8.79229 10.0015 8.80444C9.92872 8.85321 9.84375 8.91411 9.77093 8.97505C9.77093 8.97505 9.75877 8.98725 9.74667 8.9994C9.68598 9.04816 9.62529 9.09688 9.5646 9.14562C9.54035 9.15782 9.51603 9.18218 9.49177 9.19438C9.43109 9.24315 9.3704 9.30406 9.30971 9.3528C9.29755 9.37715 9.2733 9.38936 9.26114 9.40156C9.18831 9.47468 9.11549 9.5356 9.04266 9.60872C9.0305 9.60872 9.0305 9.62092 9.0184 9.63307C8.94557 9.694 8.87275 9.76711 8.79992 9.84023C8.78776 9.85243 8.78776 9.86458 8.77566 9.86458C8.71498 9.9255 8.65429 9.98643 8.59359 10.0595C8.56934 10.0839 8.53291 10.1083 8.50863 10.1327C8.44794 10.2058 8.37512 10.2789 8.30229 10.352C8.29013 10.3764 8.26588 10.3886 8.25372 10.4129C8.15662 10.5104 8.07165 10.6079 7.97455 10.7054C7.96239 10.7176 7.95029 10.7297 7.93814 10.7419C7.74393 10.9491 7.53758 11.1562 7.31911 11.339C7.10063 11.534 6.87001 11.7168 6.63939 11.8752C6.39663 12.0458 6.16601 12.192 5.91112 12.3383C5.66836 12.4723 5.41347 12.5942 5.14644 12.7038C4.89154 12.8135 4.62451 12.911 4.35748 12.9963C3.84769 13.1059 3.32576 13.3131 2.87666 13.3497C2.77956 13.3497 2.67032 13.374 2.57322 13.3862C2.46398 13.4106 2.36688 13.435 2.26977 13.4593C2.17267 13.4959 2.07557 13.5324 1.97846 13.569C1.88136 13.6056 1.78426 13.6543 1.68716 13.703C1.60219 13.764 1.50509 13.8127 1.42012 13.8736C1.33516 13.9346 1.25019 14.0077 1.17737 14.0808C1.09241 14.1417 1.00744 14.227 0.934611 14.3001C0.861783 14.3854 0.788956 14.4586 0.728268 14.5438C0.667581 14.6413 0.594753 14.7266 0.5462 14.8241C0.485512 14.9094 0.424824 15.0069 0.376271 15.1044C0.3277 15.2141 0.279169 15.3115 0.242755 15.4212C0.206342 15.5187 0.169928 15.6284 0.133514 15.738C0.109258 15.8355 0.0849438 15.933 0.0728269 16.0305C0.0728269 16.0427 0.0606703 16.0548 0.0606703 16.067C0.0364135 16.1767 0.0364134 16.323 0.0242565 16.3961C0.0121 16.4814 0 16.5545 0 16.6398C0 16.6885 3.7786e-08 16.7494 0.0121565 16.7982C0.024313 16.8835 0.036413 16.9566 0.0607271 17.0297C0.0849838 17.1028 0.109298 17.1759 0.145689 17.2491V17.2613C0.182102 17.3344 0.230656 17.4075 0.279204 17.4806C0.327774 17.5537 0.376311 17.6268 0.436999 17.6999C0.497686 17.7609 0.570514 17.834 0.643341 17.8949C0.716169 17.968 0.788996 18.029 0.873958 18.0899C1.16527 18.3458 1.23809 18.4311 1.61437 18.626C1.67505 18.6626 1.73575 18.687 1.80858 18.7235C1.82073 18.7235 1.83283 18.7357 1.84499 18.7357C1.84499 18.7601 1.84499 18.7723 1.85715 18.7967C1.8693 18.8942 1.89356 18.9916 1.91783 19.0891C1.94209 19.1988 1.97853 19.2963 2.01494 19.3816C2.05136 19.4547 2.07563 19.5278 2.11204 19.6009C2.1242 19.6253 2.1363 19.6497 2.14846 19.6618C2.19703 19.7593 2.24556 19.8446 2.29411 19.9299C2.3548 20.0152 2.41549 20.1005 2.47617 20.1858C2.53686 20.2589 2.60969 20.3442 2.68252 20.4174C2.75535 20.4905 2.82817 20.5514 2.91314 20.6245C2.91314 20.6245 2.9253 20.6367 2.9374 20.6367C3.01022 20.6977 3.08305 20.7586 3.15588 20.8073C3.24084 20.8683 3.32581 20.917 3.42291 20.9657C3.50788 21.0145 3.60498 21.0632 3.70208 21.0998C3.77491 21.1363 3.85987 21.1607 3.94484 21.1851C3.95699 21.1973 3.96909 21.1973 3.99341 21.2094C4.04198 21.2217 4.10264 21.2338 4.1512 21.246C4.11478 21.904 4.10262 22.5255 4.19977 22.7448C4.309 22.9885 4.84307 22.2452 5.37713 21.3922C5.30431 22.233 5.25575 23.2201 5.37713 23.5125C5.51065 23.8172 6.23892 22.8667 6.87009 21.8187C15.4758 19.8203 23.329 25.7912 24.1543 34.2237C23.9965 32.9076 22.3822 32.1765 21.6418 32.3593C21.2777 33.261 20.6587 34.4186 19.6634 35.1376C19.7483 34.3333 19.7119 33.5047 19.542 32.7005C19.2749 33.8215 18.753 34.8695 18.0369 35.7712C16.8838 35.8565 15.7307 35.296 15.1238 34.4552C15.0752 34.4186 15.0631 34.3455 15.0267 34.2968C14.9903 34.2115 14.9539 34.1262 14.9296 34.0409C14.8932 33.9556 14.8689 33.8703 14.8568 33.785C14.8446 33.6997 14.8446 33.6144 14.8446 33.5169C14.8446 33.456 14.8446 33.395 14.8446 33.3341C14.8568 33.2488 14.881 33.1635 14.9053 33.0782C14.9296 32.9929 14.9539 32.9076 14.9903 32.8223C15.0388 32.737 15.0752 32.6517 15.1359 32.5664C15.3423 31.9815 15.3423 31.5063 14.966 31.226C14.8932 31.1772 14.8203 31.1407 14.7354 31.1041C14.6868 31.0919 14.6261 31.0676 14.5776 31.0554C14.5412 31.0432 14.5169 31.031 14.4805 31.0188C14.3955 30.9945 14.3105 30.9701 14.2256 30.9579C14.1406 30.9335 14.0557 30.9213 13.9707 30.9213C13.8857 30.9091 13.7886 30.897 13.7037 30.897C13.643 30.897 13.5823 30.9092 13.5216 30.9092C13.4245 30.9092 13.3395 30.9214 13.2546 30.9457C13.1696 30.958 13.0846 30.9701 12.9997 30.9945C12.9147 31.0189 12.8297 31.0433 12.7448 31.0798C12.6598 31.1164 12.587 31.1529 12.502 31.1895C12.4292 31.226 12.3564 31.2748 12.2714 31.3113C9.44328 33.1635 11.1304 37.5016 13.0603 38.7567C12.3321 38.8908 11.5917 39.0492 11.3853 39.2076C11.3732 39.2198 11.3611 39.232 11.3611 39.232C11.883 39.5488 12.4292 39.8169 12.9997 40.0484C13.7765 40.3043 14.6019 40.5358 14.966 40.6333V40.6455C15.9734 40.8527 16.993 40.9258 18.0247 40.8649C23.4018 40.4871 27.8078 36.3805 28.6089 30.9701C28.6332 31.0798 28.6575 31.1773 28.6818 31.287C28.7182 31.5063 28.7667 31.7378 28.791 31.9694V31.9816C28.8152 32.0912 28.8274 32.2009 28.8396 32.2984V32.3472C28.8517 32.4568 28.8638 32.5665 28.8638 32.664C28.876 32.798 28.8881 32.9321 28.8881 33.0661V33.2611C28.8881 33.322 28.9002 33.3951 28.9002 33.4561C28.9002 33.5292 28.8881 33.6023 28.8881 33.6754V33.846C28.8881 33.9313 28.8759 34.0044 28.8759 34.0897C28.8759 34.1385 28.8759 34.1872 28.8638 34.2481C28.8638 34.3334 28.8516 34.4187 28.8516 34.5162C28.8394 34.5528 28.8394 34.5893 28.8394 34.6259C28.8273 34.7234 28.8152 34.8087 28.803 34.9061C28.803 34.9427 28.803 34.9793 28.7909 35.0158C28.7787 35.1377 28.7544 35.2473 28.7423 35.3692V35.3814V35.3936C28.718 35.5033 28.6937 35.6251 28.6695 35.7348V35.7714C28.6452 35.881 28.6209 35.9907 28.5966 36.1004C28.5966 36.1126 28.5845 36.1369 28.5845 36.1491C28.5602 36.2588 28.5359 36.3685 28.4995 36.4782V36.5147C28.4631 36.6366 28.4267 36.7462 28.4024 36.8559C28.3903 36.8681 28.3903 36.8803 28.3903 36.8803C28.3538 37.0021 28.3174 37.124 28.281 37.2458C28.2325 37.3677 28.1961 37.4773 28.1475 37.5992C28.0989 37.7211 28.0625 37.8429 28.014 37.9526C27.9654 38.0744 27.9169 38.1841 27.8683 38.306H27.8562C27.8076 38.4156 27.7591 38.5375 27.6984 38.6472C27.6862 38.6837 27.6741 38.7081 27.662 38.7325C27.6498 38.7447 27.6498 38.7568 27.6377 38.769C26.8487 40.3653 25.6835 41.7667 24.227 42.8634C24.1299 42.9243 24.0328 42.9974 23.9357 43.0705C23.9114 43.0949 23.875 43.1071 23.8507 43.1315C23.7657 43.1924 23.6808 43.2533 23.5837 43.3143L23.6201 43.3874H23.6322C23.8022 43.363 23.9721 43.3386 24.142 43.3143H24.1542C24.4698 43.2655 24.7853 43.2046 25.1009 43.1437C25.1859 43.1314 25.283 43.1071 25.368 43.0827C25.4286 43.0705 25.4772 43.0584 25.5379 43.0462C25.6229 43.0339 25.7078 43.0096 25.7928 42.9974C25.8656 42.9731 25.9384 42.9608 26.0113 42.9365C27.225 42.644 28.4024 42.2419 29.5312 41.7667C27.6013 44.4109 25.016 46.5434 21.9936 47.9448C23.3895 47.8473 24.7853 47.6158 26.1326 47.2258C31.0242 45.7757 35.1389 42.4734 37.6029 38.0257C37.1052 40.8406 35.9886 43.5214 34.3378 45.861C35.5152 45.0811 36.5954 44.1794 37.5786 43.1558C40.2975 40.3044 42.0817 36.6853 42.6886 32.798C43.1013 34.7234 43.2227 36.7096 43.0406 38.6715C51.8041 26.4006 43.7689 13.6788 40.4067 10.3278C40.3946 10.3034 40.3825 10.2912 40.3825 10.2669C40.3703 10.2791 40.3703 10.2791 40.3703 10.2912C40.3703 10.279 40.3703 10.279 40.3581 10.2669C40.3581 10.4131 40.346 10.5593 40.3339 10.7055C40.2975 10.9858 40.2611 11.2539 40.2125 11.522C40.1518 11.7901 40.079 12.0581 40.0062 12.3262C39.9212 12.5821 39.8241 12.8502 39.7149 13.1061C39.6056 13.3498 39.4842 13.6057 39.3507 13.8494C39.2172 14.081 39.0716 14.3247 38.9138 14.544C38.756 14.7755 38.586 14.9949 38.4161 15.202C38.234 15.4214 38.0398 15.6163 37.8456 15.8113C37.7243 15.921 37.615 16.0185 37.4936 16.1159C37.3965 16.2013 37.3116 16.2744 37.2145 16.3597C36.996 16.5303 36.7775 16.6887 36.5347 16.8349C36.3041 16.9811 36.0614 17.1274 35.8186 17.2492C35.5637 17.3711 35.3088 17.4807 35.0539 17.5904C34.799 17.6879 34.532 17.7732 34.265 17.8463C33.9979 17.9194 33.7188 17.9804 33.4517 18.0291C33.1726 18.0779 32.8934 18.1022 32.6264 18.1266C32.4322 18.1388 32.238 18.1509 32.0438 18.1509C31.7646 18.1509 31.4854 18.1266 31.2184 18.1022C30.9392 18.0778 30.66 18.0412 30.393 17.9803C30.1138 17.9315 29.8468 17.8585 29.5798 17.7732H29.5676C29.8347 17.7488 30.1017 17.7244 30.3687 17.6757C30.6479 17.6269 30.9149 17.566 31.182 17.4929C31.449 17.4198 31.716 17.3345 31.9709 17.237C32.2379 17.1395 32.4928 17.0177 32.7356 16.8958C32.9905 16.7739 33.2211 16.6399 33.4639 16.4937C33.6945 16.3353 33.9251 16.1768 34.1436 16.0062C34.3621 15.8356 34.5684 15.6529 34.7626 15.4579C34.969 15.2751 35.151 15.0679 35.3331 14.8608C35.5152 14.6415 35.6851 14.4221 35.8429 14.2028C35.8671 14.1662 35.8914 14.1175 35.9157 14.0809C36.0371 13.8859 36.1585 13.691 36.2677 13.496C36.4012 13.2523 36.5226 13.0086 36.6318 12.7527C36.7411 12.4968 36.8382 12.2409 36.9231 11.9728C37.0081 11.7169 37.0688 11.4488 37.1295 11.1807C37.1781 10.9005 37.2266 10.6324 37.2509 10.3643C37.2751 10.084 37.2994 9.80377 37.2994 9.53569C37.2994 9.34071 37.2873 9.14575 37.2752 8.95078C37.2509 8.67051 37.2145 8.40242 37.1781 8.13434C37.1295 7.85407 37.0688 7.58599 36.996 7.3179C36.911 7.06201 36.8261 6.79392 36.729 6.53803C36.6319 6.28213 36.5105 6.02623 36.3891 5.78252C36.2556 5.5388 36.1221 5.29509 35.9764 5.06357C35.8186 4.83204 35.6608 4.6127 35.4909 4.39336C35.3088 4.1862 35.1268 3.97905 34.9326 3.77189C34.8355 3.67441 34.7262 3.56474 34.617 3.46726C34.0708 3.04076 33.5003 2.63863 32.9298 2.27306C32.8449 2.2243 32.772 2.18776 32.6871 2.1512C32.2865 1.89531 31.9102 1.7612 31.534 1.63934Z" fill="#E0234E"/>
</svg>
