<svg width="48" height="56" viewBox="0 0 48 56" fill="none" xmlns="http://www.w3.org/2000/svg">
<path d="M23.6266 55.1746C22.8928 55.1746 22.208 54.9752 21.5721 54.6261L15.0662 50.6862C14.0879 50.1376 14.577 49.9382 14.8706 49.8384C16.1913 49.3896 16.4359 49.2898 17.8055 48.4919C17.9523 48.3921 18.1479 48.442 18.2947 48.5418L23.2841 51.5839C23.4799 51.6837 23.7244 51.6837 23.8711 51.5839L43.3888 40.0636C43.5844 39.9638 43.6822 39.7644 43.6822 39.515V16.5242C43.6822 16.2749 43.5844 16.0754 43.3888 15.9756L23.8711 4.50524C23.6755 4.4055 23.4309 4.4055 23.2841 4.50524L3.76655 15.9756C3.57089 16.0754 3.47305 16.3248 3.47305 16.5242V39.515C3.47305 39.7145 3.57089 39.9638 3.76655 40.0636L9.09843 43.2055C11.9845 44.7016 13.7944 42.9562 13.7944 41.2107V18.5191C13.7944 18.2199 14.039 17.9207 14.3814 17.9207H16.8762C17.1696 17.9207 17.4631 18.17 17.4631 18.5191V41.2107C17.4631 45.1505 15.3597 47.4446 11.691 47.4446C10.5659 47.4446 9.68544 47.4446 7.19067 46.1978L2.05448 43.2055C0.782661 42.4574 0 41.061 0 39.5649V16.5741C0 15.078 0.782661 13.6816 2.05448 12.9335L21.5721 1.41321C22.795 0.715007 24.4582 0.715007 25.6811 1.41321L45.1986 12.9335C46.4705 13.6816 47.2531 15.078 47.2531 16.5741V39.5649C47.2531 41.061 46.4705 42.4574 45.1986 43.2055L25.6811 54.7258C25.0941 54.9752 24.3603 55.1746 23.6266 55.1746Z" fill="#5FA04E"/>
<path d="M29.6921 39.3654C21.1317 39.3654 19.3708 35.3756 19.3708 31.9844C19.3708 31.6852 19.6153 31.386 19.9577 31.386H22.5014C22.7949 31.386 23.0395 31.5854 23.0395 31.8847C23.4308 34.5278 24.5559 35.8245 29.741 35.8245C33.85 35.8245 35.611 34.8769 35.611 32.6327C35.611 31.3361 35.1218 30.3885 28.7137 29.7402C23.3819 29.1916 20.0556 27.9947 20.0556 23.6559C20.0556 19.6163 23.3819 17.2225 28.9584 17.2225C35.2196 17.2225 38.3013 19.4168 38.6927 24.2045C38.6927 24.3541 38.6438 24.5037 38.546 24.6533C38.4481 24.753 38.3013 24.8528 38.1546 24.8528H35.5621C35.3174 24.8528 35.0729 24.6533 35.024 24.4039C34.437 21.661 32.9206 20.7633 28.9095 20.7633C24.4091 20.7633 23.8711 22.3592 23.8711 23.5561C23.8711 25.0024 24.507 25.4513 30.5726 26.2492C36.5893 27.0471 39.4264 28.1942 39.4264 32.4831C39.4264 36.8718 35.8555 39.3654 29.6921 39.3654Z" fill="#5FA04E"/>
</svg>
