<svg width="47" height="47" viewBox="0 0 47 47" fill="none" xmlns="http://www.w3.org/2000/svg">
<path d="M44.7969 0H2.20312C0.986373 0 0 0.986373 0 2.20312V44.7969C0 46.0136 0.986373 47 2.20312 47H44.7969C46.0136 47 47 46.0136 47 44.7969V2.20312C47 0.986373 46.0136 0 44.7969 0Z" fill="#3178C6"/>
<path fill-rule="evenodd" clip-rule="evenodd" d="M28.5276 33.6921V38.5136C29.3088 38.9151 30.2326 39.2165 31.2991 39.4173C32.3657 39.6184 33.4898 39.7188 34.6715 39.7188C35.8231 39.7188 36.9172 39.6084 37.9535 39.3874C38.9903 39.1663 39.8988 38.8023 40.6802 38.2949C41.4612 37.7876 42.0796 37.1248 42.5354 36.306C42.9908 35.4875 43.2188 34.4755 43.2188 33.2702C43.2188 32.3964 43.0885 31.6305 42.8283 30.9726C42.5677 30.3147 42.1923 29.7296 41.7014 29.2173C41.2109 28.7051 40.6224 28.2455 39.9366 27.8388C39.2505 27.432 38.4771 27.0477 37.6156 26.6862C36.9848 26.425 36.419 26.1714 35.9183 25.9253C35.4175 25.6792 34.9919 25.4281 34.6414 25.172C34.2909 24.9158 34.0205 24.6446 33.8303 24.3584C33.64 24.0721 33.5448 23.7482 33.5448 23.3866C33.5448 23.0551 33.6299 22.7563 33.8002 22.4901C33.9705 22.2239 34.2108 21.9954 34.5213 21.8046C34.8317 21.6137 35.2122 21.4656 35.6629 21.3601C36.1135 21.2546 36.6142 21.2019 37.165 21.2019C37.5658 21.2019 37.9886 21.232 38.4344 21.2923C38.8799 21.3526 39.3282 21.4455 39.7788 21.5711C40.2295 21.6966 40.6674 21.8548 41.0933 22.0456C41.5189 22.2365 41.9118 22.4574 42.2724 22.7086V18.2037C41.5413 17.9224 40.7427 17.714 39.8765 17.5784C39.0102 17.4428 38.0164 17.375 36.8946 17.375C35.753 17.375 34.6715 17.498 33.65 17.7441C32.6285 17.9902 31.7297 18.3744 30.9536 18.8967C30.1775 19.419 29.5641 20.0845 29.1135 20.893C28.6628 21.7016 28.4375 22.6684 28.4375 23.7934C28.4375 25.2297 28.8506 26.4551 29.6768 27.4696C30.503 28.4841 31.7573 29.3429 33.4397 30.046C34.1006 30.3172 34.7165 30.5834 35.2873 30.8445C35.8582 31.1057 36.3514 31.3769 36.767 31.6581C37.1826 31.9394 37.5104 32.2457 37.7507 32.5772C37.9913 32.9087 38.1113 33.2853 38.1113 33.7072C38.1113 34.0187 38.0364 34.3074 37.8862 34.5735C37.7359 34.8396 37.508 35.0706 37.2026 35.2665C36.8972 35.4624 36.5166 35.6158 36.0609 35.7261C35.6053 35.8364 35.072 35.8918 34.4612 35.8918C33.4196 35.8918 32.3882 35.7086 31.3667 35.3418C30.3452 34.9753 29.3989 34.4253 28.5276 33.6921ZM20.429 21.6906H26.7188V17.7188H9.1875V21.6906H15.4465V39.375H20.429V21.6906Z" fill="white"/>
</svg>
