<svg width="34" height="34" viewBox="0 0 34 34" fill="none" xmlns="http://www.w3.org/2000/svg">
<path d="M28.2066 20.399H19.4694V27.902H28.2066V20.399Z" fill="#F9FAFB"/>
<path d="M16.0498 20.5125H5.79346V21.6521H16.0498V20.5125Z" fill="#F9FAFB"/>
<path d="M16.0498 26.6487H5.79346V27.7884H16.0498V26.6487Z" fill="#F9FAFB"/>
<path d="M16.0498 23.5809H5.79346V24.7206H16.0498V23.5809Z" fill="#F9FAFB"/>
<path d="M27.6534 0.000305176H6.34711C2.84132 0.000902832 0.0010625 2.8417 0 6.34695V26.5135C0.00166016 30.6481 3.35106 33.9986 7.48677 33.9998H26.5138C30.6489 33.9986 33.9989 30.6486 34 26.5135V6.34695C33.9995 2.8417 31.1586 0.000902832 27.6534 0.000305176ZM30.866 26.5135C30.8654 27.7188 30.3807 28.7995 29.5911 29.5908C28.7998 30.3804 27.7191 30.8651 26.5138 30.8657H7.48677C6.2815 30.8651 5.20021 30.3804 4.40898 29.5908C3.61927 28.7995 3.13517 27.7188 3.13411 26.5135V7.8822H30.866V26.5135H30.866Z" fill="#F9FAFB"/>
<path d="M5.90754 17.7908H8.20407C9.51294 17.7908 10.3053 17.221 10.3053 16.0278C10.3053 15.3072 9.89577 14.8081 9.49514 14.6567V14.6389C9.89584 14.4163 10.1985 14.0068 10.1985 13.3485C10.1985 12.3863 9.58419 11.7369 8.26703 11.7369H5.90754C5.85469 11.7369 5.81909 11.7725 5.81909 11.8259V17.7012C5.81909 17.7551 5.85469 17.7908 5.90754 17.7908ZM7.12796 12.8493C7.12796 12.8142 7.14463 12.7959 7.18135 12.7959H8.10732C8.60537 12.7959 8.89921 13.0541 8.89921 13.4988C8.89921 13.9445 8.60537 14.2116 8.10732 14.2116H7.18135C7.14463 14.2116 7.12796 14.1938 7.12796 14.1582V12.8493ZM7.12796 15.2705C7.12796 15.2354 7.14463 15.2177 7.18135 15.2177H8.17744C8.71274 15.2177 8.9971 15.5115 8.9971 15.9751C8.9971 16.4463 8.71274 16.7318 8.17744 16.7318H7.18135C7.14463 16.7318 7.12796 16.7135 7.12796 16.6779V15.2705Z" fill="#F9FAFB"/>
<path d="M12.0539 17.7909H15.9986C16.0515 17.7909 16.0871 17.7553 16.0871 17.7013V16.7135C16.0871 16.6596 16.0515 16.6245 15.9986 16.6245H13.3275C13.2914 16.6245 13.2741 16.6067 13.2741 16.5706V11.826C13.2741 11.7727 13.2391 11.7371 13.1851 11.7371H12.0538C12.0003 11.7371 11.9653 11.7727 11.9653 11.826V17.7013C11.9653 17.7552 12.0004 17.7909 12.0539 17.7909Z" fill="#F9FAFB"/>
<path d="M19.4376 17.8882C20.4976 17.8882 21.334 17.3991 21.6457 16.4196C21.7792 16.0012 21.8143 15.6629 21.8143 14.7636C21.8143 13.8643 21.7792 13.526 21.6457 13.1075C21.334 12.1287 20.4976 11.639 19.4376 11.639C18.378 11.639 17.5412 12.1287 17.23 13.1075C17.0959 13.526 17.0603 13.8643 17.0603 14.7636C17.0603 15.6629 17.0959 16.0012 17.23 16.4196C17.5411 17.3991 18.378 17.8882 19.4376 17.8882ZM18.4848 13.4637C18.6184 13.0453 18.9395 12.796 19.4375 12.796C19.9361 12.796 20.2566 13.0453 20.3902 13.4637C20.4614 13.6779 20.4881 13.9706 20.4881 14.7637C20.4881 15.5555 20.4614 15.8499 20.3902 16.063C20.2566 16.4821 19.9361 16.7319 19.4375 16.7319C18.9395 16.7319 18.6184 16.482 18.4848 16.063C18.4142 15.8499 18.3869 15.5555 18.3869 14.7637C18.3869 13.9706 18.4142 13.6779 18.4848 13.4637Z" fill="#F9FAFB"/>
<path d="M25.763 17.8882C26.8309 17.8882 27.6679 17.3456 27.9711 16.3745C28.0773 16.0457 28.1214 15.5471 28.1214 15.0129V14.5137C28.1214 14.4614 28.0858 14.4252 28.0329 14.4252H25.95C25.896 14.4252 25.8604 14.4614 25.8604 14.5137V15.3695C25.8604 15.4224 25.896 15.458 25.95 15.458H26.7685C26.8041 15.458 26.822 15.4764 26.822 15.5115C26.822 15.769 26.7952 15.9566 26.7507 16.1085C26.626 16.5087 26.2343 16.7318 25.7803 16.7318C25.255 16.7318 24.925 16.4819 24.7914 16.063C24.7208 15.8498 24.6941 15.5554 24.6941 14.7636C24.6941 13.9706 24.7208 13.6863 24.7914 13.4726C24.925 13.0541 25.2461 12.7959 25.763 12.7959C26.2611 12.7959 26.5632 13.0096 26.8041 13.4191C26.822 13.4636 26.8665 13.4815 26.9294 13.4636L27.8815 13.063C27.9344 13.0363 27.9444 12.9829 27.9171 12.9289C27.6316 12.1988 26.8932 11.639 25.763 11.639C24.6851 11.639 23.8481 12.1287 23.5366 13.1075C23.4029 13.526 23.3668 13.8643 23.3668 14.7636C23.3668 15.6629 23.403 16.0012 23.5366 16.4196C23.8482 17.3991 24.6852 17.8882 25.763 17.8882Z" fill="#F9FAFB"/>
</svg>
