<svg width="38" height="29" viewBox="0 0 38 29" fill="none" xmlns="http://www.w3.org/2000/svg">
<path d="M5.27569 0.541321H32.7243C35.6378 0.541321 38 2.90348 38 5.81701V23.183C38 26.0965 35.6378 28.4587 32.7243 28.4587H5.27569C2.36224 28.4587 0 26.0965 0 23.183V5.81701C0 2.90348 2.36224 0.541321 5.27569 0.541321ZM24.7767 19.3777L32.1645 25.6803C32.6856 26.125 33.4689 26.0632 33.9136 25.5416C34.3583 25.0205 34.2965 24.2371 33.7748 23.7925L26.3871 17.4898C25.8661 17.0451 25.0827 17.1069 24.638 17.6286C24.1933 18.1496 24.2551 18.933 24.7767 19.3777ZM19 16.9816C19.9881 16.9791 20.946 16.6508 21.6949 16.0032L33.0302 6.1648C33.5482 5.71518 33.6034 4.93188 33.1544 4.4145C32.7049 3.89645 31.9215 3.84131 31.4042 4.29026L20.0657 14.1311C19.8234 14.3468 19.4241 14.5025 19 14.5C18.5765 14.5013 18.184 14.3498 17.9283 14.1268L17.9228 14.122L6.59589 4.29033C6.07851 3.84138 5.29514 3.89653 4.84559 4.41457C4.39672 4.93188 4.45179 5.71526 4.96984 6.16488L16.3082 16.0062C17.0547 16.6471 18.0113 16.9803 19 16.9816ZM4.08589 25.5416C4.53061 26.0632 5.31399 26.125 5.83493 25.6803L13.2227 19.3777C13.7443 18.9329 13.8061 18.1496 13.3614 17.6286C12.9167 17.1069 12.1334 17.0452 11.6123 17.4898L4.22461 23.7925C3.703 24.2371 3.64117 25.0205 4.08589 25.5416Z" fill="#F9FAFB"/>
</svg>
