<svg width="33" height="31" viewBox="0 0 33 31" fill="none" xmlns="http://www.w3.org/2000/svg">
<path fill-rule="evenodd" clip-rule="evenodd" d="M16.5137 0C7.38203 0 0 7.10414 0 15.8929C0 22.9183 4.72992 28.8651 11.2916 30.9698C12.1119 31.1281 12.4124 30.6279 12.4124 30.2071C12.4124 29.8387 12.3854 28.5757 12.3854 27.2599C7.79171 28.2073 6.83511 25.3653 6.83511 25.3653C6.09688 23.5234 5.00304 23.05 5.00304 23.05C3.49953 22.0764 5.11256 22.0764 5.11256 22.0764C6.78035 22.1817 7.65549 23.7078 7.65549 23.7078C9.13162 26.1284 11.5103 25.4444 12.4672 25.0234C12.6038 23.9971 13.0415 23.2867 13.5063 22.8921C9.84248 22.5237 5.98769 21.1555 5.98769 15.0508C5.98769 13.3141 6.64345 11.8933 7.68253 10.7883C7.51859 10.3937 6.94429 8.76198 7.84681 6.57811C7.84681 6.57811 9.24114 6.15703 12.3851 8.20948C13.7311 7.86159 15.1192 7.68461 16.5137 7.68312C17.908 7.68312 19.3294 7.86751 20.6419 8.20948C23.7862 6.15703 25.1805 6.57811 25.1805 6.57811C26.083 8.76198 25.5084 10.3937 25.3444 10.7883C26.4109 11.8933 27.0396 13.3141 27.0396 15.0508C27.0396 21.1555 23.1848 22.4972 19.4936 22.8921C20.0953 23.392 20.6145 24.3391 20.6145 25.839C20.6145 27.9703 20.5875 29.6808 20.5875 30.2068C20.5875 30.6279 20.8883 31.1281 21.7084 30.9702C28.27 28.8648 32.9999 22.9183 32.9999 15.8929C33.027 7.10414 25.6179 0 16.5137 0Z" fill="#F9FAFB"/>
</svg>
