<svg width="34" height="35" viewBox="0 0 34 35" fill="none" xmlns="http://www.w3.org/2000/svg">
<path d="M29.0195 0.5H4.98047C2.23447 0.5 0 2.73447 0 5.48047V29.5195C0 32.2655 2.23447 34.5 4.98047 34.5H29.0195C31.7655 34.5 34 32.2655 34 29.5195V5.48047C34 2.73447 31.7655 0.5 29.0195 0.5ZM12.0195 27.4609H8.03516V13.5156H12.0195V27.4609ZM12.0195 11.5234H8.03516V7.53906H12.0195V11.5234ZM25.9648 27.4609H21.9805V19.4922C21.9805 18.3939 21.0866 17.5 19.9883 17.5C18.89 17.5 17.9961 18.3939 17.9961 19.4922V27.4609H14.0117V13.5156H17.9961V14.2666C19.0399 13.9421 19.718 13.5156 20.9844 13.5156C23.6865 13.5185 25.9648 15.9426 25.9648 18.8074V27.4609Z" fill="#F9FAFB"/>
</svg>
